<mxfile host="app.diagrams.net" agent="Mozilla/5.0 (X11; Linux x86_64) AppleWebKit/537.36 (KHTML, like Gecko) Chrome/131.0.0.0 Safari/537.36" version="24.7.17">
  <diagram name="Page-1" id="rp_04yJ9CrOCaPe-QViK">
    <mxGraphModel dx="1050" dy="573" grid="1" gridSize="10" guides="1" tooltips="1" connect="1" arrows="1" fold="1" page="1" pageScale="1" pageWidth="850" pageHeight="1100" math="0" shadow="0">
      <root>
        <mxCell id="0" />
        <mxCell id="1" parent="0" />
        <mxCell id="Jq-MjCZvIjuX5zlNXnmq-4" style="edgeStyle=orthogonalEdgeStyle;rounded=0;orthogonalLoop=1;jettySize=auto;html=1;" edge="1" parent="1" source="Jq-MjCZvIjuX5zlNXnmq-3" target="Jq-MjCZvIjuX5zlNXnmq-5">
          <mxGeometry relative="1" as="geometry">
            <mxPoint x="310" y="270" as="targetPoint" />
          </mxGeometry>
        </mxCell>
        <mxCell id="Jq-MjCZvIjuX5zlNXnmq-3" value="Start" style="rounded=0;whiteSpace=wrap;html=1;" vertex="1" parent="1">
          <mxGeometry x="250" y="110" width="120" height="60" as="geometry" />
        </mxCell>
        <mxCell id="Jq-MjCZvIjuX5zlNXnmq-7" value="" style="edgeStyle=orthogonalEdgeStyle;rounded=0;orthogonalLoop=1;jettySize=auto;html=1;" edge="1" parent="1" source="Jq-MjCZvIjuX5zlNXnmq-5" target="Jq-MjCZvIjuX5zlNXnmq-6">
          <mxGeometry relative="1" as="geometry" />
        </mxCell>
        <mxCell id="Jq-MjCZvIjuX5zlNXnmq-5" value="Opne Page: Wikipedia world cup fifa finals" style="rounded=0;whiteSpace=wrap;html=1;" vertex="1" parent="1">
          <mxGeometry x="250" y="240" width="120" height="60" as="geometry" />
        </mxCell>
        <mxCell id="Jq-MjCZvIjuX5zlNXnmq-9" value="" style="edgeStyle=orthogonalEdgeStyle;rounded=0;orthogonalLoop=1;jettySize=auto;html=1;" edge="1" parent="1" source="Jq-MjCZvIjuX5zlNXnmq-6" target="Jq-MjCZvIjuX5zlNXnmq-8">
          <mxGeometry relative="1" as="geometry" />
        </mxCell>
        <mxCell id="Jq-MjCZvIjuX5zlNXnmq-6" value="Extract Element: Get table DOM path" style="rounded=0;whiteSpace=wrap;html=1;" vertex="1" parent="1">
          <mxGeometry x="250" y="380" width="120" height="60" as="geometry" />
        </mxCell>
        <mxCell id="Jq-MjCZvIjuX5zlNXnmq-11" value="" style="edgeStyle=orthogonalEdgeStyle;rounded=0;orthogonalLoop=1;jettySize=auto;html=1;" edge="1" parent="1" source="Jq-MjCZvIjuX5zlNXnmq-8" target="Jq-MjCZvIjuX5zlNXnmq-10">
          <mxGeometry relative="1" as="geometry" />
        </mxCell>
        <mxCell id="Jq-MjCZvIjuX5zlNXnmq-39" style="edgeStyle=orthogonalEdgeStyle;rounded=0;orthogonalLoop=1;jettySize=auto;html=1;entryX=0.5;entryY=0;entryDx=0;entryDy=0;" edge="1" parent="1" source="Jq-MjCZvIjuX5zlNXnmq-8" target="Jq-MjCZvIjuX5zlNXnmq-40">
          <mxGeometry relative="1" as="geometry">
            <mxPoint x="210" y="680" as="targetPoint" />
            <Array as="points">
              <mxPoint x="215" y="570" />
            </Array>
          </mxGeometry>
        </mxCell>
        <mxCell id="Jq-MjCZvIjuX5zlNXnmq-8" value="Iterate 10 times" style="rounded=0;whiteSpace=wrap;html=1;" vertex="1" parent="1">
          <mxGeometry x="250" y="520" width="120" height="60" as="geometry" />
        </mxCell>
        <mxCell id="Jq-MjCZvIjuX5zlNXnmq-13" value="" style="edgeStyle=orthogonalEdgeStyle;rounded=0;orthogonalLoop=1;jettySize=auto;html=1;" edge="1" parent="1" source="Jq-MjCZvIjuX5zlNXnmq-10" target="Jq-MjCZvIjuX5zlNXnmq-12">
          <mxGeometry relative="1" as="geometry" />
        </mxCell>
        <mxCell id="Jq-MjCZvIjuX5zlNXnmq-10" value="Extract HTML: Year" style="rounded=0;whiteSpace=wrap;html=1;" vertex="1" parent="1">
          <mxGeometry x="400" y="680" width="120" height="60" as="geometry" />
        </mxCell>
        <mxCell id="Jq-MjCZvIjuX5zlNXnmq-15" value="" style="edgeStyle=orthogonalEdgeStyle;rounded=0;orthogonalLoop=1;jettySize=auto;html=1;" edge="1" parent="1" source="Jq-MjCZvIjuX5zlNXnmq-12" target="Jq-MjCZvIjuX5zlNXnmq-14">
          <mxGeometry relative="1" as="geometry" />
        </mxCell>
        <mxCell id="Jq-MjCZvIjuX5zlNXnmq-12" value="Extract HTML : WInner" style="rounded=0;whiteSpace=wrap;html=1;" vertex="1" parent="1">
          <mxGeometry x="400" y="820" width="120" height="60" as="geometry" />
        </mxCell>
        <mxCell id="Jq-MjCZvIjuX5zlNXnmq-17" value="" style="edgeStyle=orthogonalEdgeStyle;rounded=0;orthogonalLoop=1;jettySize=auto;html=1;" edge="1" parent="1" source="Jq-MjCZvIjuX5zlNXnmq-14" target="Jq-MjCZvIjuX5zlNXnmq-16">
          <mxGeometry relative="1" as="geometry" />
        </mxCell>
        <mxCell id="Jq-MjCZvIjuX5zlNXnmq-14" value="Extract HTML : Score" style="rounded=0;whiteSpace=wrap;html=1;" vertex="1" parent="1">
          <mxGeometry x="400" y="960" width="120" height="60" as="geometry" />
        </mxCell>
        <mxCell id="Jq-MjCZvIjuX5zlNXnmq-19" value="" style="edgeStyle=orthogonalEdgeStyle;rounded=0;orthogonalLoop=1;jettySize=auto;html=1;" edge="1" parent="1" source="Jq-MjCZvIjuX5zlNXnmq-16" target="Jq-MjCZvIjuX5zlNXnmq-18">
          <mxGeometry relative="1" as="geometry" />
        </mxCell>
        <mxCell id="Jq-MjCZvIjuX5zlNXnmq-16" value="Extract HTML: Runners-up" style="rounded=0;whiteSpace=wrap;html=1;" vertex="1" parent="1">
          <mxGeometry x="400" y="1100" width="120" height="60" as="geometry" />
        </mxCell>
        <mxCell id="Jq-MjCZvIjuX5zlNXnmq-21" value="" style="edgeStyle=orthogonalEdgeStyle;rounded=0;orthogonalLoop=1;jettySize=auto;html=1;" edge="1" parent="1" source="Jq-MjCZvIjuX5zlNXnmq-18" target="Jq-MjCZvIjuX5zlNXnmq-20">
          <mxGeometry relative="1" as="geometry" />
        </mxCell>
        <mxCell id="Jq-MjCZvIjuX5zlNXnmq-18" value="Parse number: Convert year to integer" style="rounded=0;whiteSpace=wrap;html=1;" vertex="1" parent="1">
          <mxGeometry x="400" y="1240" width="120" height="60" as="geometry" />
        </mxCell>
        <mxCell id="Jq-MjCZvIjuX5zlNXnmq-23" value="" style="edgeStyle=orthogonalEdgeStyle;rounded=0;orthogonalLoop=1;jettySize=auto;html=1;" edge="1" parent="1" source="Jq-MjCZvIjuX5zlNXnmq-20" target="Jq-MjCZvIjuX5zlNXnmq-22">
          <mxGeometry relative="1" as="geometry" />
        </mxCell>
        <mxCell id="Jq-MjCZvIjuX5zlNXnmq-20" value="Parse number: Convert score Values" style="rounded=0;whiteSpace=wrap;html=1;" vertex="1" parent="1">
          <mxGeometry x="400" y="1380" width="120" height="60" as="geometry" />
        </mxCell>
        <mxCell id="Jq-MjCZvIjuX5zlNXnmq-25" value="" style="edgeStyle=orthogonalEdgeStyle;rounded=0;orthogonalLoop=1;jettySize=auto;html=1;" edge="1" parent="1" source="Jq-MjCZvIjuX5zlNXnmq-22" target="Jq-MjCZvIjuX5zlNXnmq-24">
          <mxGeometry relative="1" as="geometry" />
        </mxCell>
        <mxCell id="Jq-MjCZvIjuX5zlNXnmq-43" value="yes" style="edgeLabel;html=1;align=center;verticalAlign=middle;resizable=0;points=[];" vertex="1" connectable="0" parent="Jq-MjCZvIjuX5zlNXnmq-25">
          <mxGeometry x="-0.2756" y="4" relative="1" as="geometry">
            <mxPoint as="offset" />
          </mxGeometry>
        </mxCell>
        <mxCell id="Jq-MjCZvIjuX5zlNXnmq-31" value="" style="edgeStyle=orthogonalEdgeStyle;rounded=0;orthogonalLoop=1;jettySize=auto;html=1;" edge="1" parent="1" source="Jq-MjCZvIjuX5zlNXnmq-22" target="Jq-MjCZvIjuX5zlNXnmq-30">
          <mxGeometry relative="1" as="geometry" />
        </mxCell>
        <mxCell id="Jq-MjCZvIjuX5zlNXnmq-44" value="No" style="edgeLabel;html=1;align=center;verticalAlign=middle;resizable=0;points=[];" vertex="1" connectable="0" parent="Jq-MjCZvIjuX5zlNXnmq-31">
          <mxGeometry x="-0.1067" y="1" relative="1" as="geometry">
            <mxPoint as="offset" />
          </mxGeometry>
        </mxCell>
        <mxCell id="Jq-MjCZvIjuX5zlNXnmq-22" value="Detour: Valid Data" style="rhombus;whiteSpace=wrap;html=1;rounded=0;" vertex="1" parent="1">
          <mxGeometry x="390" y="1510" width="140" height="80" as="geometry" />
        </mxCell>
        <mxCell id="Jq-MjCZvIjuX5zlNXnmq-27" value="" style="edgeStyle=orthogonalEdgeStyle;rounded=0;orthogonalLoop=1;jettySize=auto;html=1;" edge="1" parent="1" source="Jq-MjCZvIjuX5zlNXnmq-24" target="Jq-MjCZvIjuX5zlNXnmq-26">
          <mxGeometry relative="1" as="geometry" />
        </mxCell>
        <mxCell id="Jq-MjCZvIjuX5zlNXnmq-24" value="Call API: Google Sheets" style="whiteSpace=wrap;html=1;rounded=0;" vertex="1" parent="1">
          <mxGeometry x="400" y="1680" width="120" height="60" as="geometry" />
        </mxCell>
        <mxCell id="Jq-MjCZvIjuX5zlNXnmq-29" value="" style="edgeStyle=orthogonalEdgeStyle;rounded=0;orthogonalLoop=1;jettySize=auto;html=1;" edge="1" parent="1" source="Jq-MjCZvIjuX5zlNXnmq-26" target="Jq-MjCZvIjuX5zlNXnmq-28">
          <mxGeometry relative="1" as="geometry" />
        </mxCell>
        <mxCell id="Jq-MjCZvIjuX5zlNXnmq-45" value="No" style="edgeLabel;html=1;align=center;verticalAlign=middle;resizable=0;points=[];" vertex="1" connectable="0" parent="Jq-MjCZvIjuX5zlNXnmq-29">
          <mxGeometry x="-0.2025" y="2" relative="1" as="geometry">
            <mxPoint as="offset" />
          </mxGeometry>
        </mxCell>
        <mxCell id="Jq-MjCZvIjuX5zlNXnmq-33" value="" style="edgeStyle=orthogonalEdgeStyle;rounded=0;orthogonalLoop=1;jettySize=auto;html=1;" edge="1" parent="1" source="Jq-MjCZvIjuX5zlNXnmq-26" target="Jq-MjCZvIjuX5zlNXnmq-32">
          <mxGeometry relative="1" as="geometry" />
        </mxCell>
        <mxCell id="Jq-MjCZvIjuX5zlNXnmq-46" value="Yes" style="edgeLabel;html=1;align=center;verticalAlign=middle;resizable=0;points=[];" vertex="1" connectable="0" parent="Jq-MjCZvIjuX5zlNXnmq-33">
          <mxGeometry x="0.472" y="-2" relative="1" as="geometry">
            <mxPoint as="offset" />
          </mxGeometry>
        </mxCell>
        <mxCell id="Jq-MjCZvIjuX5zlNXnmq-26" value="Detour: API succes" style="rhombus;whiteSpace=wrap;html=1;rounded=0;" vertex="1" parent="1">
          <mxGeometry x="450" y="1810" width="160" height="80" as="geometry" />
        </mxCell>
        <mxCell id="Jq-MjCZvIjuX5zlNXnmq-36" style="edgeStyle=orthogonalEdgeStyle;rounded=0;orthogonalLoop=1;jettySize=auto;html=1;entryX=0;entryY=0.75;entryDx=0;entryDy=0;" edge="1" parent="1" source="Jq-MjCZvIjuX5zlNXnmq-28" target="Jq-MjCZvIjuX5zlNXnmq-24">
          <mxGeometry relative="1" as="geometry">
            <Array as="points">
              <mxPoint x="380" y="2010" />
              <mxPoint x="380" y="1725" />
            </Array>
          </mxGeometry>
        </mxCell>
        <mxCell id="Jq-MjCZvIjuX5zlNXnmq-28" value="Retry API calls" style="whiteSpace=wrap;html=1;rounded=0;" vertex="1" parent="1">
          <mxGeometry x="400" y="1980" width="120" height="60" as="geometry" />
        </mxCell>
        <mxCell id="Jq-MjCZvIjuX5zlNXnmq-34" style="edgeStyle=orthogonalEdgeStyle;rounded=0;orthogonalLoop=1;jettySize=auto;html=1;exitX=0.5;exitY=0;exitDx=0;exitDy=0;entryX=0.5;entryY=1;entryDx=0;entryDy=0;" edge="1" parent="1">
          <mxGeometry relative="1" as="geometry">
            <mxPoint x="305" y="580" as="targetPoint" />
            <mxPoint x="295" y="1520" as="sourcePoint" />
            <Array as="points">
              <mxPoint x="295" y="620" />
              <mxPoint x="305" y="620" />
            </Array>
          </mxGeometry>
        </mxCell>
        <mxCell id="Jq-MjCZvIjuX5zlNXnmq-30" value="Error Handling" style="whiteSpace=wrap;html=1;rounded=0;" vertex="1" parent="1">
          <mxGeometry x="210" y="1520" width="120" height="60" as="geometry" />
        </mxCell>
        <mxCell id="Jq-MjCZvIjuX5zlNXnmq-35" style="edgeStyle=orthogonalEdgeStyle;rounded=0;orthogonalLoop=1;jettySize=auto;html=1;entryX=0;entryY=0.5;entryDx=0;entryDy=0;" edge="1" parent="1" source="Jq-MjCZvIjuX5zlNXnmq-32" target="Jq-MjCZvIjuX5zlNXnmq-8">
          <mxGeometry relative="1" as="geometry">
            <mxPoint x="160" y="700" as="targetPoint" />
            <Array as="points">
              <mxPoint x="150" y="1850" />
              <mxPoint x="150" y="550" />
            </Array>
          </mxGeometry>
        </mxCell>
        <mxCell id="Jq-MjCZvIjuX5zlNXnmq-32" value="Continue loop" style="whiteSpace=wrap;html=1;rounded=0;" vertex="1" parent="1">
          <mxGeometry x="155" y="1820" width="120" height="60" as="geometry" />
        </mxCell>
        <mxCell id="Jq-MjCZvIjuX5zlNXnmq-40" value="End" style="rounded=0;whiteSpace=wrap;html=1;" vertex="1" parent="1">
          <mxGeometry x="180" y="690" width="70" height="60" as="geometry" />
        </mxCell>
      </root>
    </mxGraphModel>
  </diagram>
</mxfile>
